<?xml version="1.0" encoding="UTF-8"?>
<svg xmlns="http://www.w3.org/2000/svg" xmlns:xlink="http://www.w3.org/1999/xlink" width="375px" height="375px" viewBox="0 0 375 375" version="1.1">
<defs>
<filter id="alpha" filterUnits="objectBoundingBox" x="0%" y="0%" width="100%" height="100%">
  <feColorMatrix type="matrix" in="SourceGraphic" values="0 0 0 0 1 0 0 0 0 1 0 0 0 0 1 0 0 0 1 0"/>
</filter>
<mask id="mask0">
  <g filter="url(#alpha)">
<rect x="0" y="0" width="375" height="375" style="fill:rgb(0%,0%,0%);fill-opacity:0.909804;stroke:none;"/>
  </g>
</mask>
<clipPath id="clip1">
  <rect x="0" y="0" width="375" height="375"/>
</clipPath>
<g id="surface5" clip-path="url(#clip1)">
<path style=" stroke:none;fill-rule:nonzero;fill:rgb(24.705882%,66.27451%,96.078431%);fill-opacity:1;" d="M 117.964844 203.550781 C 117.648438 204.5 117.355469 205.457031 117.078125 206.425781 C 119.398438 212.191406 122.078125 217.804688 125.109375 223.226562 C 121.800781 217.046875 119.394531 210.417969 117.964844 203.550781 Z M 254.339844 225.292969 C 254.046875 225.808594 253.75 226.28125 253.433594 226.804688 C 253.808594 226.339844 254.164062 225.867188 254.507812 225.394531 Z M 254.339844 225.292969 "/>
</g>
<linearGradient id="linear0" gradientUnits="userSpaceOnUse" x1="25.6407" y1="112.392" x2="127.349" y2="112.392" gradientTransform="matrix(2.5,0,0,2.5,0,0)">
<stop offset="0.45" style="stop-color:rgb(0%,44.313725%,73.72549%);stop-opacity:1;"/>
<stop offset="1" style="stop-color:rgb(16.078431%,67.058824%,88.627451%);stop-opacity:1;"/>
</linearGradient>
<linearGradient id="linear1" gradientUnits="userSpaceOnUse" x1="16.9857" y1="66.0063" x2="92.3459" y2="66.0063" gradientTransform="matrix(2.5,0,0,2.5,0,0)">
<stop offset="0.1" style="stop-color:rgb(0%,44.313725%,73.72549%);stop-opacity:1;"/>
<stop offset="0.52" style="stop-color:rgb(16.078431%,67.058824%,88.627451%);stop-opacity:1;"/>
</linearGradient>
<linearGradient id="linear2" gradientUnits="userSpaceOnUse" x1="42.5187" y1="49.2908" x2="127.132" y2="49.2908" gradientTransform="matrix(2.5,0,0,2.5,0,0)">
<stop offset="0" style="stop-color:rgb(0%,35.686275%,59.215686%);stop-opacity:1;"/>
<stop offset="1" style="stop-color:rgb(0%,45.882353%,74.509804%);stop-opacity:1;"/>
</linearGradient>
<linearGradient id="linear3" gradientUnits="userSpaceOnUse" x1="78.7432" y1="50.4098" x2="127.348" y2="50.4098" gradientTransform="matrix(2.5,0,0,2.5,0,0)">
<stop offset="0" style="stop-color:rgb(0%,35.686275%,59.215686%);stop-opacity:1;"/>
<stop offset="1" style="stop-color:rgb(0%,45.882353%,74.509804%);stop-opacity:1;"/>
</linearGradient>
</defs>
<g id="surface1">
<use xlink:href="#surface5" mask="url(#mask0)"/>
<path style=" stroke:none;fill-rule:nonzero;fill:url(#linear0);" d="M 318.371094 262.410156 C 305.550781 284.695312 287.171875 303.253906 265.03125 316.253906 C 242.890625 329.257812 217.757812 336.261719 192.105469 336.574219 C 166.449219 336.886719 141.152344 330.5 118.707031 318.039062 C 96.257812 305.582031 77.429688 287.480469 64.070312 265.511719 C 79.132812 273.980469 95.5625 279.734375 112.605469 282.503906 L 114.675781 282.800781 C 135.242188 285.894531 156.226562 284.59375 176.253906 278.980469 C 196.28125 273.367188 214.902344 263.570312 230.886719 250.234375 C 240.046875 244.203125 247.757812 236.210938 253.457031 226.828125 C 253.832031 226.363281 254.1875 225.890625 254.53125 225.414062 Z M 318.371094 262.410156 "/>
<path style=" stroke:none;fill-rule:nonzero;fill:url(#linear1);" d="M 230.863281 250.253906 C 214.878906 263.585938 196.261719 273.375 176.238281 278.984375 C 156.214844 284.59375 135.234375 285.894531 114.675781 282.800781 L 112.652344 282.484375 C 95.609375 279.710938 79.179688 273.960938 64.121094 265.492188 C 52.246094 245.964844 45.039062 223.953125 43.058594 201.167969 C 41.078125 178.382812 44.378906 155.449219 52.703125 134.15625 C 61.027344 112.867188 74.148438 93.792969 91.042969 78.425781 C 107.9375 63.0625 128.144531 51.824219 150.089844 45.589844 C 127.128906 68.390625 112.253906 98.109375 107.742188 130.195312 C 103.234375 162.28125 109.332031 194.964844 125.113281 223.242188 C 125.988281 224.882812 126.925781 226.492188 127.921875 228.054688 C 127.953125 228.121094 127.996094 228.183594 128.039062 228.242188 C 133.308594 236.503906 140.164062 243.632812 148.199219 249.21875 C 156.238281 254.804688 165.300781 258.738281 174.863281 260.785156 C 184.429688 262.835938 194.300781 262.960938 203.914062 261.15625 C 213.527344 259.351562 222.6875 255.652344 230.863281 250.273438 Z M 230.863281 250.253906 "/>
<path style=" stroke:none;fill-rule:nonzero;fill:url(#linear2);" d="M 317.828125 113.214844 C 306.523438 108.28125 294.644531 104.78125 282.472656 102.796875 C 281.800781 102.6875 281.125 102.578125 280.503906 102.492188 C 252.074219 98.1875 223.007812 102.339844 196.910156 114.429688 C 194.753906 114.246094 192.570312 114.148438 190.363281 114.144531 C 179.363281 114.140625 168.5 116.601562 158.566406 121.347656 C 148.632812 126.089844 139.878906 133 132.949219 141.566406 C 126.015625 150.132812 121.078125 160.140625 118.496094 170.867188 C 115.910156 181.589844 115.75 192.757812 118.015625 203.550781 C 117.699219 204.5 117.40625 205.460938 117.128906 206.429688 C 106.210938 179.34375 103.511719 149.628906 109.375 121.015625 C 115.242188 92.402344 129.40625 66.160156 150.089844 45.589844 C 181.574219 36.667969 215.117188 38.464844 245.472656 50.707031 C 275.828125 62.945312 301.273438 84.9375 317.828125 113.234375 Z M 317.828125 113.214844 "/>
<path style=" stroke:none;fill-rule:nonzero;fill:url(#linear3);" d="M 318.371094 114.132812 L 284.277344 133.902344 L 254.339844 151.207031 C 248.40625 140.902344 240.085938 132.179688 230.082031 125.777344 C 220.074219 119.375 208.679688 115.484375 196.859375 114.429688 C 222.957031 102.339844 252.019531 98.1875 280.453125 102.492188 C 281.121094 102.582031 281.800781 102.6875 282.421875 102.796875 C 294.59375 104.78125 306.472656 108.28125 317.777344 113.214844 C 318.015625 113.523438 318.191406 113.789062 318.371094 114.132812 Z M 318.371094 114.132812 "/>
</g>
</svg>
