<?xml version="1.0" standalone="no"?>
<!DOCTYPE svg PUBLIC "-//W3C//DTD SVG 20010904//EN"
 "http://www.w3.org/TR/2001/REC-SVG-20010904/DTD/svg10.dtd">
<svg version="1.0" xmlns="http://www.w3.org/2000/svg"
 width="300.000000pt" height="300.000000pt" viewBox="0 0 300.000000 300.000000"
 preserveAspectRatio="xMidYMid meet">
<metadata>
Created by potrace 1.11, written by Peter Selinger 2001-2013
</metadata>
<g transform="translate(0.000000,300.000000) scale(0.100000,-0.100000)"
fill="#000000" stroke="none">
<path d="M1385 2993 c-154 -14 -329 -56 -455 -110 -504 -214 -841 -655 -916
-1198 -10 -74 -11 -340 -2 -415 38 -292 213 -495 468 -543 203 -37 378 10 523
143 l56 51 67 -40 c129 -78 258 -111 403 -106 93 4 102 6 177 28 249 75 441
277 501 527 19 80 25 209 12 275 -5 28 -12 63 -15 79 -14 78 -102 238 -174
314 -131 140 -322 223 -519 227 -290 6 -553 -161 -676 -428 -51 -111 -62 -198
-65 -502 0 -44 -5 -56 -34 -87 -48 -50 -82 -66 -138 -62 -131 9 -168 85 -163
334 4 217 42 370 132 532 274 497 891 695 1396 447 421 -207 663 -664 590
-1116 -20 -125 -46 -208 -103 -321 -137 -274 -388 -477 -680 -552 -113 -29
-145 -33 -255 -34 -161 -1 -272 19 -410 74 -43 17 -79 29 -80 28 -1 -2 -44
-68 -95 -148 -50 -80 -100 -157 -111 -172 -10 -15 -19 -31 -19 -37 0 -13 169
-85 270 -114 88 -26 121 -34 180 -42 19 -3 60 -9 90 -13 112 -16 313 -6 473
24 56 10 181 49 254 80 314 130 581 367 745 665 63 114 136 311 153 413 3 17
10 58 16 91 14 76 18 286 7 373 -58 493 -342 919 -772 1156 -121 67 -336 142
-458 160 -21 3 -54 9 -74 12 -40 6 -251 11 -299 7z m236 -1222 c182 -86 231
-311 102 -466 -98 -115 -276 -134 -399 -42 -191 144 -146 431 80 518 56 21
161 16 217 -10z"/>
</g>
</svg>
