<svg width="500" height="50" viewBox="0 0 500 50" fill="none" xmlns="http://www.w3.org/2000/svg">
<g clip-path="url(#clip0_349_1626)">
<path d="M190.006 33.9664C191.299 33.9664 192.599 33.4218 192.884 31.7748H191.557C191.306 32.4986 190.729 32.8174 190.006 32.8174C188.971 32.8174 188.178 32.0603 188.178 30.991C188.178 29.9151 188.971 29.1646 190.006 29.1646C190.729 29.1646 191.306 29.4834 191.557 30.2007H192.884C192.599 28.5602 191.285 28.0156 190.006 28.0156C188.116 28.0156 186.809 29.2377 186.809 30.991C186.809 32.7444 188.116 33.9664 190.006 33.9664Z" fill="#4A154B"/>
<path d="M204.484 22.0659V9.62296C204.484 9.19258 204.31 8.77956 203.999 8.4753C203.688 8.17105 203.267 8 202.827 8H189.018C188.579 8 188.157 8.17099 187.847 8.4753C187.536 8.77962 187.361 9.19264 187.361 9.62296H176.314C175.875 9.62296 175.453 9.79395 175.142 10.0983C174.832 10.4026 174.657 10.8156 174.657 11.2459V18.2789C174.218 18.2789 173.796 18.4499 173.485 18.7542C173.175 19.0585 173 19.4715 173 19.9019V38.8367C173 39.2671 173.175 39.6801 173.485 39.9844C173.796 40.2886 174.218 40.4597 174.657 40.4597H204.484C204.924 40.4597 205.346 40.2887 205.656 39.9844C205.967 39.6801 206.142 39.2671 206.142 38.8367V23.6888C206.142 23.2584 205.967 22.8454 205.656 22.5412C205.346 22.2369 204.924 22.0659 204.484 22.0659ZM175.762 11.246C175.762 10.9472 176.009 10.705 176.314 10.705H187.361V11.7869H182.39C181.951 11.7869 181.529 11.9579 181.218 12.2623C180.908 12.5666 180.733 12.9796 180.733 13.4099V18.2789H175.762L175.762 11.246ZM181.838 21.5249C181.838 21.6683 181.779 21.806 181.676 21.9074C181.572 22.0089 181.432 22.0659 181.285 22.0659H175.762C175.457 22.0659 175.209 21.8236 175.209 21.5249V20.9839C175.209 20.6851 175.457 20.4429 175.762 20.4429H181.285C181.432 20.4429 181.572 20.4999 181.676 20.6013C181.779 20.7028 181.838 20.8404 181.838 20.9839V21.5249ZM189.571 37.7548C187.813 37.7548 186.127 37.0708 184.884 35.8534C183.641 34.6358 182.942 32.9846 182.942 31.2628C182.942 29.541 183.641 27.8898 184.884 26.6723C186.127 25.4549 187.813 24.7709 189.571 24.7709C191.329 24.7709 193.015 25.4548 194.258 26.6723C195.501 27.8899 196.199 29.541 196.199 31.2628C196.199 32.9846 195.501 34.6359 194.258 35.8534C193.014 37.0708 191.329 37.7548 189.571 37.7548ZM199.513 22.0659H184.599C184.294 22.0659 184.047 21.8236 184.047 21.5249V19.9019C184.047 19.4715 183.872 19.0585 183.562 18.7543C183.251 18.45 182.829 18.279 182.39 18.279H181.838V13.4099C181.838 13.1112 182.085 12.869 182.39 12.869H198.961C199.107 12.869 199.248 12.926 199.351 13.0274C199.455 13.1288 199.513 13.2665 199.513 13.4099L199.513 22.0659ZM203.38 22.0659H200.618V13.4099C200.618 12.9796 200.443 12.5665 200.133 12.2623C199.822 11.958 199.4 11.787 198.961 11.787H188.466V9.62299C188.466 9.32424 188.713 9.08199 189.018 9.08199H202.827C202.974 9.08199 203.114 9.13899 203.218 9.24043C203.322 9.34187 203.38 9.47953 203.38 9.62299L203.38 22.0659Z" fill="#4A154B"/>
<path d="M191.228 15.0332H184.599C184.294 15.0332 184.047 15.2755 184.047 15.5742C184.047 15.873 184.294 16.1152 184.599 16.1152H191.228C191.533 16.1152 191.78 15.873 191.78 15.5742C191.78 15.2755 191.533 15.0332 191.228 15.0332Z" fill="black"/>
<path d="M191.228 17.1973H184.599C184.294 17.1973 184.047 17.4395 184.047 17.7382C184.047 18.037 184.294 18.2792 184.599 18.2792H191.228C191.533 18.2792 191.78 18.037 191.78 17.7382C191.78 17.4395 191.533 17.1973 191.228 17.1973Z" fill="black"/>
<path d="M184.599 20.4433H191.228C191.533 20.4433 191.78 20.2011 191.78 19.9023C191.78 19.6036 191.533 19.3613 191.228 19.3613H184.599C184.294 19.3613 184.047 19.6036 184.047 19.9023C184.047 20.2011 184.294 20.4433 184.599 20.4433Z" fill="black"/>
<path d="M196.913 15.1909L193.046 18.9779C192.94 19.0788 192.879 19.2172 192.878 19.3624C192.877 19.5075 192.935 19.6471 193.04 19.7495C193.144 19.8521 193.287 19.9094 193.435 19.908C193.583 19.9067 193.725 19.8473 193.828 19.743L197.694 15.956C197.903 15.7437 197.9 15.4063 197.687 15.1976C197.474 14.9889 197.13 14.9858 196.913 15.1909V15.1909Z" fill="black"/>
<path d="M197.856 18.8202C197.856 19.4178 197.361 19.9023 196.751 19.9023C196.141 19.9023 195.646 19.4178 195.646 18.8202C195.646 18.2228 196.141 17.7383 196.751 17.7383C197.361 17.7383 197.856 18.2228 197.856 18.8202Z" fill="black"/>
<path d="M195.094 16.1152C195.094 16.7127 194.6 17.1972 193.989 17.1972C193.379 17.1972 192.885 16.7127 192.885 16.1152C192.885 15.5177 193.379 15.0332 193.989 15.0332C194.6 15.0332 195.094 15.5177 195.094 16.1152Z" fill="black"/>
<path d="M224.001 16.8698V22.1676C223.289 21.4143 222.619 20.8675 221.991 20.5273C221.288 20.1952 220.56 20.0291 219.807 20.0291C218.393 20.0291 217.239 20.503 216.346 21.4507C216.04 21.791 215.792 22.1474 215.602 22.52C215.411 22.8846 215.267 23.3018 215.167 23.7716C215.076 24.2333 215.031 24.7032 215.031 25.1811C215.031 26.6068 215.477 27.7935 216.371 28.7413C217.272 29.6729 218.418 30.1387 219.807 30.1387C220.552 30.1387 221.279 29.9646 221.991 29.6162C222.619 29.3003 223.289 28.7575 224.001 27.988V33.2979C223.083 33.7192 222.301 33.9987 221.656 34.1364C220.854 34.3227 220.068 34.4159 219.299 34.4159C218.323 34.4159 217.405 34.2984 216.544 34.0635C215.684 33.8367 214.915 33.4883 214.237 33.0185C212.88 32.1112 211.847 30.9934 211.135 29.6648C210.424 28.2877 210.068 26.7608 210.068 25.0839C210.068 23.7392 210.3 22.5038 210.763 21.3779C210.97 20.8351 211.23 20.3248 211.545 19.8468C211.867 19.3608 212.281 18.8586 212.785 18.3401C213.654 17.4652 214.63 16.8171 215.713 16.3959C216.788 15.9666 217.984 15.752 219.299 15.752C220.051 15.752 220.837 15.8411 221.656 16.0193C222.466 16.2299 223.248 16.5134 224.001 16.8698ZM235.272 27.8179C235.272 26.8458 235.012 26.0924 234.491 25.5578C233.962 24.9908 233.25 24.7072 232.357 24.7072C231.464 24.7072 230.761 24.9826 230.248 25.5335C229.718 26.1005 229.454 26.862 229.454 27.8179C229.454 28.7819 229.718 29.5392 230.248 30.0901C230.752 30.6328 231.456 30.9042 232.357 30.9042C233.25 30.9042 233.957 30.6328 234.479 30.0901C235.008 29.5474 235.272 28.7899 235.272 27.8179ZM239.155 21.6938V33.9663H235.099V31.9735C234.511 32.8241 233.854 33.4479 233.126 33.8448C232.407 34.2417 231.563 34.4402 230.595 34.4402C228.916 34.4402 227.581 33.8407 226.588 32.6418C226.1 32.0505 225.728 31.3538 225.471 30.5519C225.215 29.7499 225.087 28.8467 225.087 27.8422C225.087 25.8332 225.612 24.2414 226.662 23.0668C227.713 21.8922 229.119 21.3049 230.881 21.3049C231.823 21.3049 232.634 21.5034 233.312 21.9003C233.999 22.2811 234.586 22.8846 235.074 23.7108V21.6938H239.155ZM241.73 33.9663V21.6938H245.775V24.1847C246.346 23.2127 247.024 22.4836 247.809 21.9976C248.571 21.5358 249.492 21.3049 250.576 21.3049C251.395 21.3049 252.123 21.4264 252.76 21.6694C253.388 21.9449 253.897 22.3175 254.286 22.7873C254.641 23.2572 254.877 23.7554 254.993 24.2819C255.134 24.9543 255.204 25.8413 255.204 26.943V33.9663H250.774V27.3926C250.774 26.3962 250.613 25.6833 250.291 25.254C249.968 24.8085 249.443 24.5857 248.715 24.5857C247.806 24.5857 247.136 24.9178 246.705 25.5821C246.284 26.2463 246.073 27.3238 246.073 28.8143V33.9663H241.73ZM257.468 33.9663V21.6938H261.885V33.9663H257.468ZM258.027 18.5345H258.052C258.052 18.0809 258.213 17.7083 258.536 17.4166C258.858 17.1007 259.247 16.9427 259.702 16.9427C260.181 16.9427 260.574 17.0926 260.88 17.3923C261.194 17.692 261.352 18.0728 261.352 18.5345C261.352 19.0043 261.191 19.3932 260.868 19.701C260.554 20.0169 260.165 20.1749 259.702 20.1749C259.23 20.1749 258.833 20.0088 258.511 19.6767C258.188 19.3689 258.027 18.9882 258.027 18.5345ZM274.298 27.8179C274.298 26.8458 274.038 26.0924 273.517 25.5578C272.988 24.9908 272.276 24.7072 271.383 24.7072C270.489 24.7072 269.787 24.9826 269.274 25.5335C268.745 26.1005 268.48 26.862 268.48 27.8179C268.48 28.7819 268.745 29.5392 269.274 30.0901C269.779 30.6328 270.482 30.9042 271.383 30.9042C272.276 30.9042 272.983 30.6328 273.504 30.0901C274.034 29.5474 274.298 28.7899 274.298 27.8179ZM278.181 21.6938V33.9663H274.125V31.9735C273.537 32.8241 272.88 33.4479 272.152 33.8448C271.433 34.2417 270.589 34.4402 269.621 34.4402C267.943 34.4402 266.606 33.8407 265.614 32.6418C265.126 32.0505 264.754 31.3538 264.498 30.5519C264.241 29.7499 264.113 28.8467 264.113 27.8422C264.113 25.8332 264.638 24.2414 265.688 23.0668C266.739 21.8922 268.145 21.3049 269.907 21.3049C270.85 21.3049 271.66 21.5034 272.338 21.9003C273.025 22.2811 273.612 22.8846 274.1 23.7108V21.6938H278.181ZM279.59 32.9456L280.508 29.6405C281.154 30.1995 281.865 30.6207 282.642 30.9042C283.412 31.204 284.189 31.3538 284.975 31.3538C285.537 31.3538 285.959 31.2607 286.24 31.0743C286.53 30.9042 286.674 30.6571 286.674 30.3331C286.674 29.7904 286.091 29.3853 284.925 29.118C284.52 29.0289 284.214 28.952 284.007 28.8871C282.659 28.4983 281.704 28.0244 281.141 27.4655C280.529 26.8903 280.223 26.1451 280.223 25.2297C280.223 24.047 280.682 23.0952 281.6 22.3742C282.485 21.6614 283.721 21.3049 285.309 21.3049C286.079 21.3049 286.897 21.394 287.766 21.5722C288.494 21.7181 289.342 22.0016 290.309 22.4228L289.391 25.3998C288.796 25.0029 288.196 24.7072 287.592 24.5128C287.022 24.3103 286.422 24.209 285.793 24.209C285.281 24.209 284.896 24.286 284.64 24.4399C284.391 24.5857 284.268 24.8085 284.268 25.1082C284.268 25.5294 284.85 25.894 286.017 26.2018C286.397 26.3152 286.591 26.3719 286.6 26.3719C288.122 26.7932 289.189 27.2914 289.801 27.8665C290.396 28.474 290.694 29.2638 290.694 30.2359C290.694 31.4915 290.202 32.5041 289.218 33.2737C288.209 34.0513 286.906 34.4402 285.309 34.4402C284.201 34.4402 283.18 34.3146 282.246 34.0635C281.319 33.8205 280.434 33.4479 279.59 32.9456ZM291.135 32.9456L292.053 29.6405C292.698 30.1995 293.41 30.6207 294.187 30.9042C294.956 31.204 295.734 31.3538 296.519 31.3538C297.082 31.3538 297.504 31.2607 297.785 31.0743C298.074 30.9042 298.219 30.6571 298.219 30.3331C298.219 29.7904 297.636 29.3853 296.47 29.118C296.065 29.0289 295.759 28.952 295.552 28.8871C294.204 28.4983 293.248 28.0244 292.686 27.4655C292.074 26.8903 291.768 26.1451 291.768 25.2297C291.768 24.047 292.227 23.0952 293.145 22.3742C294.03 21.6614 295.267 21.3049 296.855 21.3049C297.623 21.3049 298.443 21.394 299.311 21.5722C300.039 21.7181 300.886 22.0016 301.854 22.4228L300.936 25.3998C300.34 25.0029 299.741 24.7072 299.137 24.5128C298.566 24.3103 297.967 24.209 297.338 24.209C296.825 24.209 296.441 24.286 296.185 24.4399C295.937 24.5857 295.812 24.8085 295.812 25.1082C295.812 25.5294 296.396 25.894 297.562 26.2018C297.942 26.3152 298.137 26.3719 298.145 26.3719C299.667 26.7932 300.733 27.2914 301.346 27.8665C301.941 28.474 302.239 29.2638 302.239 30.2359C302.239 31.4915 301.747 32.5041 300.762 33.2737C299.753 34.0513 298.451 34.4402 296.855 34.4402C295.746 34.4402 294.725 34.3146 293.79 34.0635C292.864 33.8205 291.979 33.4479 291.135 32.9456ZM312.481 26.2504C312.406 25.5699 312.137 25.0151 311.675 24.5857C311.211 24.1563 310.644 23.9417 309.974 23.9417C309.272 23.9417 308.701 24.1321 308.263 24.5128C307.808 24.9421 307.523 25.5213 307.407 26.2504H312.481ZM316.835 28.6928H307.307C307.332 29.6486 307.576 30.3777 308.04 30.8799C308.519 31.3984 309.214 31.6576 310.124 31.6576C310.785 31.6576 311.352 31.532 311.823 31.2809C312.303 31.0136 312.651 30.6491 312.865 30.1873L316.19 31.4996C315.802 32.4312 315.099 33.1521 314.081 33.6625C313.072 34.1809 311.836 34.4402 310.372 34.4402C308.188 34.4402 306.435 33.8407 305.112 32.6418C303.796 31.4753 303.139 29.9159 303.139 27.9637C303.139 26.06 303.796 24.4682 305.112 23.1883C306.427 21.9327 308.097 21.3049 310.124 21.3049C312.191 21.3049 313.825 21.9409 315.024 23.2127C315.636 23.8688 316.091 24.6343 316.389 25.5092C316.687 26.376 316.835 27.3683 316.835 28.4862V28.6928ZM319.323 33.9663L319.299 24.7558H317.426V21.6938H319.299V18.0363H323.678V21.6938H325.527V24.7558H323.678V33.9663H319.323Z" fill="#4A154B"/>
</g>
<defs>
<clipPath id="clip0_349_1626">
<rect width="153" height="33" fill="white" transform="translate(173 8)"/>
</clipPath>
</defs>
</svg>
