<svg width="512" height="512" viewBox="0 0 512 512" fill="none" xmlns="http://www.w3.org/2000/svg">
<g opacity="0.91">
<path d="M160.426 276.848C159.998 278.152 159.596 279.47 159.222 280.802C162.369 288.729 166.011 296.444 170.125 303.901C165.631 295.403 162.364 286.291 160.426 276.848ZM345.523 306.741C345.124 307.448 344.722 308.1 344.293 308.82C344.803 308.182 345.283 307.529 345.751 306.877L345.523 306.741Z" fill="#3FA9F5"/>
</g>
<path d="M432.431 357.767C415.03 388.403 390.079 413.916 360.031 431.793C329.983 449.669 295.871 459.297 261.051 459.726C226.23 460.156 191.898 451.377 161.43 434.248C130.962 417.118 105.407 392.231 87.2773 362.032C107.72 373.674 130.016 381.582 153.151 385.391L155.96 385.798C183.873 390.052 212.356 388.265 239.539 380.548C266.722 372.831 291.991 359.362 313.689 341.026C326.121 332.738 336.585 321.749 344.323 308.849C344.831 308.211 345.314 307.559 345.781 306.906L432.431 357.767Z" fill="url(#paint0_linear_384_1511)"/>
<path d="M313.661 341.054C291.964 359.382 266.698 372.842 239.52 380.554C212.341 388.264 183.866 390.054 155.959 385.799L153.217 385.365C130.082 381.555 107.785 373.648 87.3432 362.005C71.2293 335.16 61.4462 304.894 58.7583 273.571C56.0703 242.248 60.5504 210.719 71.8484 181.446C83.1463 152.174 100.956 125.952 123.886 104.829C146.815 83.7068 174.244 68.2564 204.027 59.6855C172.864 91.0315 152.675 131.888 146.553 175.999C140.43 220.109 148.711 265.041 170.127 303.917C171.317 306.172 172.588 308.387 173.939 310.533C173.985 310.626 174.039 310.713 174.1 310.793C181.253 322.15 190.554 331.953 201.462 339.631C212.372 347.312 224.673 352.717 237.654 355.533C250.634 358.35 264.036 358.522 277.083 356.043C290.13 353.563 302.562 348.477 313.661 341.079V341.054Z" fill="url(#paint1_linear_384_1511)"/>
<path d="M431.694 152.655C416.347 145.87 400.228 141.059 383.706 138.333C382.797 138.184 381.874 138.034 381.03 137.912C342.446 131.995 302.997 137.702 267.572 154.326C264.648 154.073 261.686 153.941 258.689 153.932C243.756 153.93 229.012 157.313 215.53 163.835C202.049 170.357 190.17 179.853 180.762 191.631C171.353 203.409 164.651 217.171 161.144 231.914C157.638 246.657 157.416 262.009 160.494 276.849C160.066 278.154 159.665 279.472 159.29 280.804C144.469 243.57 140.808 202.719 148.768 163.38C156.727 124.04 175.951 87.9658 204.026 59.6855C246.757 47.417 292.288 49.8908 333.485 66.7192C374.685 83.5478 409.224 113.781 431.694 152.682V152.655Z" fill="url(#paint2_linear_384_1511)"/>
<path d="M432.428 153.92L386.155 181.096L345.524 204.888C337.47 190.719 326.177 178.726 312.597 169.926C299.016 161.125 283.55 155.775 267.504 154.328C302.929 137.703 342.375 131.996 380.964 137.913C381.874 138.035 382.796 138.185 383.638 138.334C400.159 141.061 416.279 145.872 431.625 152.656C431.946 153.077 432.186 153.444 432.428 153.92Z" fill="url(#paint3_linear_384_1511)"/>
<defs>
<linearGradient id="paint0_linear_384_1511" x1="248.765" y1="425.622" x2="229.712" y2="346.273" gradientUnits="userSpaceOnUse">
<stop offset="0.458054" stop-color="#F7FBFE"/>
<stop offset="1" stop-color="#C2CED3"/>
</linearGradient>
<linearGradient id="paint1_linear_384_1511" x1="119.87" y1="250.461" x2="313.69" y2="224.085" gradientUnits="userSpaceOnUse">
<stop offset="0.1" stop-color="#F7FBFE"/>
<stop offset="0.52" stop-color="#C2CED3"/>
</linearGradient>
<linearGradient id="paint2_linear_384_1511" x1="222.127" y1="157.27" x2="296.479" y2="281.252" gradientUnits="userSpaceOnUse">
<stop stop-color="#F7FBFE"/>
<stop offset="1" stop-color="#8CAFC5"/>
</linearGradient>
<linearGradient id="paint3_linear_384_1511" x1="337.276" y1="134.837" x2="350.27" y2="228.012" gradientUnits="userSpaceOnUse">
<stop stop-color="#C2CED3"/>
<stop offset="0.672565" stop-color="#F7FBFE"/>
</linearGradient>
</defs>
</svg>
